<?xml version="1.0" encoding="utf-8"?>
<!-- Generator: Adobe Illustrator 24.3.0, SVG Export Plug-In . SVG Version: 6.00 Build 0)  -->
<svg version="1.1" id="Calque_1" xmlns="http://www.w3.org/2000/svg" xmlns:xlink="http://www.w3.org/1999/xlink" x="0px" y="0px"
	 viewBox="0 0 310.7 219.4" style="enable-background:new 0 0 310.7 219.4;" xml:space="preserve">
<style type="text/css">
	.st0{display:none;}
	.st1{display:inline;fill:#00FF00;}
</style>
<g class="st0">
	<path class="st1" d="M118.3,98.6L41.9,175c21.1,21.1,55.3,21.1,76.4,0S139.4,119.7,118.3,98.6z"/>
	<path class="st1" d="M155.5,42.9l-76.3,76.4c-21.1-21.1-21.1-55.3,0-76.4S134.4,21.8,155.5,42.9z"/>
	<path class="st1" d="M151.7,82.8v108c29.8,0,54-24.2,54-54S181.5,82.8,151.7,82.8z"/>
	<polyline class="st1" points="204.1,82.8 244.6,190.8 285.1,82.8 	"/>
</g>
<g>
	
		<image style="overflow:visible;" width="317" height="237" xlink:href="2CAF650DDF1E2A3A.png"  transform="matrix(1 0 0 1 -5.0552 -6.5299)">
	</image>
</g>
<g>
	
		<image style="overflow:visible;" width="317" height="237" xlink:href="2CAF650DDF1E2A3E.png"  transform="matrix(1 0 0 1 -17.0552 -10.5299)">
	</image>
</g>
<g>
	<path d="M102.2,99.3l-76.4,76.4c21.1,21.1,55.3,21.1,76.4,0S123.3,120.4,102.2,99.3z"/>
	<path d="M139.4,43.6L63.1,120C42,98.9,42,64.7,63.1,43.6S118.3,22.5,139.4,43.6z"/>
	<path d="M135.6,83.5v108c29.8,0,54-24.2,54-54S165.4,83.5,135.6,83.5z"/>
	<polyline points="188,83.5 228.5,191.5 269,83.5 	"/>
</g>
<path class="st0" d="M119.7-33.5"/>
</svg>
