<svg id="Calque_1" data-name="Calque 1" xmlns="http://www.w3.org/2000/svg" width="85.781mm" height="68.745mm" viewBox="0 0 243.159 194.867"><path d="M270,351" transform="translate(-178.227 -412.285)"/><path d="M254.6,483.816l-76.368,76.368A54,54,0,1,0,254.6,483.816Z" transform="translate(-178.227 -412.285)"/><path d="M291.846,428.1l-76.368,76.368A54,54,0,0,1,291.846,428.1Z" transform="translate(-178.227 -412.285)"/><path d="M288,468V576a54,54,0,0,0,0-108Z" transform="translate(-178.227 -412.285)"/><polyline points="162.159 55.715 202.659 163.715 243.159 55.715"/><path d="M201.7,606.984v-9.342h.8v8.614h4.524v.728Z" transform="translate(-178.227 -412.285)"/><path d="M209.638,606.984v-9.342h5.925v.728h-5.127v3.46h5.029v.729h-5.029v3.7h5.127v.728Z" transform="translate(-178.227 -412.285)"/><path d="M227.432,605.065a3.806,3.806,0,0,0,2.913,1.36c1.919,0,2.466-1.066,2.466-1.863,0-1.318-1.247-1.681-2.564-2.032-1.471-.406-3.039-.826-3.039-2.55,0-1.526,1.372-2.493,3.067-2.493a4.013,4.013,0,0,1,3.166,1.318l-.532.588a3.346,3.346,0,0,0-2.676-1.177c-1.247,0-2.185.715-2.185,1.722,0,1.108,1.162,1.429,2.437,1.766,1.513.434,3.166.91,3.166,2.8,0,1.205-.8,2.647-3.32,2.647a4.3,4.3,0,0,1-3.417-1.484Z" transform="translate(-178.227 -412.285)"/><path d="M240.636,597.487a4.842,4.842,0,1,1-4.538,4.833A4.518,4.518,0,0,1,240.636,597.487Zm0,.729c-2.269,0-3.7,1.722-3.7,4.1,0,2.354,1.429,4.1,3.7,4.1,2.241,0,3.7-1.751,3.7-4.1C244.334,599.938,242.877,598.216,240.636,598.216Z" transform="translate(-178.227 -412.285)"/><path d="M248.025,597.642h.813v5.743c0,1.89,1,3.04,2.829,3.04,1.85,0,2.83-1.15,2.83-3.04v-5.743h.813V603.4c0,2.312-1.233,3.754-3.643,3.754s-3.642-1.456-3.642-3.754Z" transform="translate(-178.227 -412.285)"/><path d="M258.511,606.984v-9.342h5.926v.728H259.31v3.46h5.028v.729H259.31v4.425Z" transform="translate(-178.227 -412.285)"/><path d="M266.981,606.984v-9.342h5.926v.728H267.78v3.46h5.029v.729H267.78v4.425Z" transform="translate(-178.227 -412.285)"/><path d="M275.451,606.984v-9.342h.8v8.614h4.524v.728Z" transform="translate(-178.227 -412.285)"/><path d="M283.389,606.984v-9.342h5.925v.728h-5.126v3.46h5.028v.729h-5.028v3.7h5.126v.728Z" transform="translate(-178.227 -412.285)"/><path d="M292.167,597.642h.813v5.743c0,1.89,1,3.04,2.83,3.04s2.829-1.15,2.829-3.04v-5.743h.813V603.4c0,2.312-1.233,3.754-3.642,3.754s-3.643-1.456-3.643-3.754Z" transform="translate(-178.227 -412.285)"/><path d="M308.13,606.984l-2.619-3.866h-2.059v3.866h-.8v-9.342h3.489a2.646,2.646,0,0,1,2.842,2.731,2.573,2.573,0,0,1-2.59,2.689l2.7,3.922Zm-2.059-8.614h-2.619v4.021h2.619a2.011,2.011,0,1,0,0-4.021Z" transform="translate(-178.227 -412.285)"/><path d="M320.868,606.984v-9.342h2.984a4.671,4.671,0,1,1,0,9.342Zm.8-.728h2.186a3.944,3.944,0,0,0,0-7.886h-2.186Z" transform="translate(-178.227 -412.285)"/><path d="M331.438,606.984v-9.342h5.924v.728h-5.127v3.46h5.03v.729h-5.03v3.7h5.127v.728Z" transform="translate(-178.227 -412.285)"/><path d="M352.1,606.984l-3.825-9.342h.925l3.39,8.446,3.4-8.446h.924l-3.824,9.342Z" transform="translate(-178.227 -412.285)"/><path d="M359.17,606.984v-9.342H365.1v.728h-5.127v3.46H365v.729h-5.029v3.7H365.1v.728Z" transform="translate(-178.227 -412.285)"/><path d="M373.425,606.984l-2.619-3.866h-2.06v3.866h-.8v-9.342h3.488a2.646,2.646,0,0,1,2.843,2.731,2.574,2.574,0,0,1-2.591,2.689l2.7,3.922Zm-2.06-8.614h-2.619v4.021h2.619a2.011,2.011,0,1,0,0-4.021Z" transform="translate(-178.227 -412.285)"/><path d="M382.622,606.984,380,603.118h-2.06v3.866h-.8v-9.342h3.487a2.647,2.647,0,0,1,2.844,2.731,2.574,2.574,0,0,1-2.592,2.689l2.7,3.922Zm-2.06-8.614h-2.619v4.021h2.619a2.011,2.011,0,1,0,0-4.021Z" transform="translate(-178.227 -412.285)"/><path d="M386.344,606.984v-9.342h5.925v.728h-5.127v3.46h5.029v.729h-5.029v3.7h5.127v.728Z" transform="translate(-178.227 -412.285)"/></svg>